<?xml version="1.0" encoding="utf-8"?>
<!-- Generator: Adobe Illustrator 25.0.1, SVG Export Plug-In . SVG Version: 6.00 Build 0)  -->
<svg version="1.1" xmlns="http://www.w3.org/2000/svg" xmlns:xlink="http://www.w3.org/1999/xlink" x="0px" y="0px"
	 viewBox="0 0 300 300" style="enable-background:new 0 0 300 300;" xml:space="preserve">
<style type="text/css">
	.st0{display:none;}
	.st1{display:inline;fill:#0F0000;}
	.st2{fill:#0099CC;}
	.st3{fill:#FFFFFF;}
	.st4{fill:#FFFFFF;stroke:#0099CC;stroke-miterlimit:10;}
	.st5{fill:none;stroke:#0099CC;stroke-width:4;stroke-miterlimit:10;}
	.st6{fill:none;stroke:#0099CC;stroke-miterlimit:10;}
	.st7{fill:#1A1A1A;}
	.st8{fill:none;stroke:#FFFFFF;stroke-width:3;stroke-linecap:round;stroke-miterlimit:10;}
	.st9{fill:#FFFFFF;stroke:#000000;stroke-width:3;stroke-miterlimit:10;}
	.st10{fill:none;stroke:#1A1A1A;stroke-width:3;stroke-linecap:round;stroke-miterlimit:10;}
	.st11{fill:none;stroke:#000000;stroke-width:3;stroke-miterlimit:10;}
	.st12{fill:none;stroke:#000000;stroke-width:3;stroke-linecap:round;stroke-miterlimit:10;}
	
		.st13{fill:none;stroke:#000000;stroke-width:3;stroke-linecap:round;stroke-miterlimit:10;stroke-dasharray:5.4685,5.4685,5.4685,5.4685;}
	
		.st14{fill:none;stroke:#000000;stroke-width:3;stroke-linecap:round;stroke-miterlimit:10;stroke-dasharray:5.4685,5.4685,5.4685,5.4685,5.4685,5.4685;}
	
		.st15{fill:none;stroke:#000000;stroke-width:3;stroke-linecap:round;stroke-miterlimit:10;stroke-dasharray:7.0543,7.0543,7.0543,7.0543;}
	
		.st16{fill:none;stroke:#000000;stroke-width:3;stroke-linecap:round;stroke-miterlimit:10;stroke-dasharray:7.0543,7.0543,7.0543,7.0543,7.0543,7.0543;}
	
		.st17{fill:none;stroke:#000000;stroke-width:3;stroke-linecap:round;stroke-miterlimit:10;stroke-dasharray:7.1999,7.1999,7.1999,7.1999;}
	
		.st18{fill:none;stroke:#000000;stroke-width:3;stroke-linecap:round;stroke-miterlimit:10;stroke-dasharray:7.1999,7.1999,7.1999,7.1999,7.1999,7.1999;}
	
		.st19{fill:none;stroke:#000000;stroke-width:3;stroke-linecap:round;stroke-miterlimit:10;stroke-dasharray:6.2946,6.2946,6.2946,6.2946;}
	
		.st20{fill:none;stroke:#000000;stroke-width:3;stroke-linecap:round;stroke-miterlimit:10;stroke-dasharray:6.2946,6.2946,6.2946,6.2946,6.2946,6.2946;}
	
		.st21{fill:none;stroke:#000000;stroke-width:3;stroke-linecap:round;stroke-miterlimit:10;stroke-dasharray:6.4652,6.4652,6.4652,6.4652;}
	
		.st22{fill:none;stroke:#000000;stroke-width:3;stroke-linecap:round;stroke-miterlimit:10;stroke-dasharray:6.4652,6.4652,6.4652,6.4652,6.4652,6.4652;}
	
		.st23{fill:none;stroke:#000000;stroke-width:3;stroke-linecap:round;stroke-miterlimit:10;stroke-dasharray:6.9887,6.9887,6.9887,6.9887;}
	
		.st24{fill:none;stroke:#000000;stroke-width:3;stroke-linecap:round;stroke-miterlimit:10;stroke-dasharray:6.9887,6.9887,6.9887,6.9887,6.9887,6.9887;}
	
		.st25{fill:none;stroke:#000000;stroke-width:3;stroke-linecap:round;stroke-miterlimit:10;stroke-dasharray:6.9668,6.9668,6.9668,6.9668;}
	
		.st26{fill:none;stroke:#000000;stroke-width:3;stroke-linecap:round;stroke-miterlimit:10;stroke-dasharray:6.9668,6.9668,6.9668,6.9668,6.9668,6.9668;}
	
		.st27{fill:none;stroke:#000000;stroke-width:3;stroke-linecap:round;stroke-miterlimit:10;stroke-dasharray:7.0215,7.0215,7.0215,7.0215;}
	
		.st28{fill:none;stroke:#000000;stroke-width:3;stroke-linecap:round;stroke-miterlimit:10;stroke-dasharray:7.0215,7.0215,7.0215,7.0215,7.0215,7.0215;}
	
		.st29{fill:none;stroke:#000000;stroke-width:3;stroke-linecap:round;stroke-miterlimit:10;stroke-dasharray:8.6678,8.6678,8.6678,8.6678;}
	
		.st30{fill:none;stroke:#000000;stroke-width:3;stroke-linecap:round;stroke-miterlimit:10;stroke-dasharray:8.6678,8.6678,8.6678,8.6678,8.6678,8.6678;}
	
		.st31{fill:none;stroke:#000000;stroke-width:3;stroke-linecap:round;stroke-miterlimit:10;stroke-dasharray:9.1363,9.1363,9.1363,9.1363;}
	
		.st32{fill:none;stroke:#000000;stroke-width:3;stroke-linecap:round;stroke-miterlimit:10;stroke-dasharray:9.1363,9.1363,9.1363,9.1363,9.1363,9.1363;}
</style>
<g id="Ebene_2" class="st0">
	<rect x="-502.9" y="-50.7" class="st1" width="2417.2" height="423"/>
</g>
<g id="Ebene_1">
	<g>
		<g>
			<path class="st3" d="M148.4,217.5v-6.6c0-0.8-0.7-1.5-1.5-1.5s-1.5,0.7-1.5,1.5v6.6c-6.3,0.7-11.2,6.1-11.2,12.6
				c0,7,5.7,12.7,12.7,12.7s12.7-5.7,12.7-12.7C159.5,223.6,154.6,218.3,148.4,217.5z"/>
			<path class="st3" d="M88,170.5c0-1.3-0.2-2.6-0.6-3.8l3.8-1.7c0.8-0.3,1.1-1.2,0.8-2c-0.3-0.8-1.2-1.1-2-0.8l-3.8,1.7
				c-2.2-3.7-6.3-6.2-10.9-6.2c-7,0-12.7,5.7-12.7,12.7s5.7,12.7,12.7,12.7S88,177.5,88,170.5z"/>
			<path class="st3" d="M196.4,197.2c-2.2,0-4.2,0.5-6,1.5l-3.3-4.7c-0.5-0.7-1.4-0.8-2.1-0.4c-0.7,0.5-0.8,1.4-0.4,2.1l3.3,4.7
				c-2.6,2.3-4.3,5.7-4.3,9.5c0,7,5.7,12.7,12.7,12.7s12.7-5.7,12.7-12.7S203.4,197.2,196.4,197.2z"/>
			<path class="st3" d="M105.4,200.4l3.3-4.7c0.5-0.7,0.3-1.6-0.4-2.1c-0.7-0.5-1.6-0.3-2.1,0.4l-3.3,4.7c-1.8-1-3.8-1.5-6-1.5
				c-7,0-12.7,5.7-12.7,12.7s5.7,12.7,12.7,12.7s12.7-5.7,12.7-12.7C109.6,206.1,108,202.7,105.4,200.4z"/>
			<path class="st3" d="M218.1,157.8c-4.6,0-8.7,2.5-10.9,6.2l-3.8-1.7c-0.8-0.3-1.6,0-2,0.8s0,1.6,0.8,2l3.8,1.7
				c-0.4,1.2-0.6,2.5-0.6,3.8c0,7,5.7,12.7,12.7,12.7s12.7-5.7,12.7-12.7S225.1,157.8,218.1,157.8z"/>
			<path class="st3" d="M146.9,204.9c0.8,0,1.5-0.7,1.5-1.5v-7.6c0-0.8-0.7-1.5-1.5-1.5s-1.5,0.7-1.5,1.5v7.6
				C145.4,204.2,146,204.9,146.9,204.9z"/>
			<path class="st3" d="M146.9,189.7c0.8,0,1.5-0.7,1.5-1.5v-7.6c0-0.8-0.7-1.5-1.5-1.5s-1.5,0.7-1.5,1.5v7.6
				C145.4,189,146,189.7,146.9,189.7z"/>
			<path class="st3" d="M170.8,170.4c-0.5-0.7-1.4-0.8-2.1-0.4c-0.7,0.5-0.8,1.4-0.4,2.1l4.1,5.9c0.3,0.4,0.8,0.6,1.2,0.6
				c0.3,0,0.6-0.1,0.9-0.3c0.7-0.5,0.8-1.4,0.4-2.1L170.8,170.4z"/>
			<path class="st3" d="M179,182.2c-0.5-0.7-1.4-0.8-2.1-0.4c-0.7,0.5-0.8,1.4-0.4,2.1l4.1,5.9c0.3,0.4,0.8,0.6,1.2,0.6
				c0.3,0,0.6-0.1,0.9-0.3c0.7-0.5,0.8-1.4,0.4-2.1L179,182.2z"/>
			<path class="st3" d="M124.8,170.1c-0.7-0.5-1.6-0.3-2.1,0.4l-4.1,5.9c-0.5,0.7-0.3,1.6,0.4,2.1c0.3,0.2,0.6,0.3,0.9,0.3
				c0.5,0,0.9-0.2,1.2-0.6l4.1-5.9C125.6,171.5,125.5,170.6,124.8,170.1z"/>
			<path class="st3" d="M116.6,181.8c-0.7-0.5-1.6-0.3-2.1,0.4l-4.1,5.9c-0.5,0.7-0.3,1.6,0.4,2.1c0.3,0.2,0.6,0.3,0.9,0.3
				c0.5,0,0.9-0.2,1.2-0.6l4.1-5.9C117.4,183.2,117.2,182.3,116.6,181.8z"/>
			<path class="st3" d="M108.2,157.4c0.2,0,0.4,0,0.6-0.1l5.8-2.6c0.8-0.3,1.1-1.2,0.8-2s-1.2-1.1-2-0.8l-5.8,2.6
				c-0.8,0.3-1.1,1.2-0.8,2C107.1,157,107.6,157.4,108.2,157.4z"/>
			<path class="st3" d="M96.5,162.6c0.2,0,0.4,0,0.6-0.1l5.8-2.6c0.8-0.3,1.1-1.2,0.8-2c-0.3-0.8-1.2-1.1-2-0.8l-5.8,2.6
				c-0.8,0.3-1.1,1.2-0.8,2C95.4,162.2,95.9,162.6,96.5,162.6z"/>
			<path class="st3" d="M190.6,159.8l5.8,2.6c0.2,0.1,0.4,0.1,0.6,0.1c0.6,0,1.1-0.3,1.4-0.9c0.3-0.8,0-1.6-0.8-2l-5.8-2.6
				c-0.8-0.3-1.6,0-2,0.8C189.5,158.6,189.8,159.5,190.6,159.8z"/>
		</g>
		<g>
			<path class="st3" d="M146.9,163.9c-0.8,0-1.5,0.7-1.5,1.5v7.6c0,0.8,0.7,1.5,1.5,1.5s1.5-0.7,1.5-1.5v-7.6
				C148.4,164.6,147.7,163.9,146.9,163.9z"/>
			<path class="st3" d="M162.6,158.7c-0.5-0.7-1.4-0.8-2.1-0.4c-0.7,0.5-0.8,1.4-0.4,2.1l4.1,5.9c0.3,0.4,0.8,0.6,1.2,0.6
				c0.3,0,0.6-0.1,0.9-0.3c0.7-0.5,0.8-1.4,0.4-2.1L162.6,158.7z"/>
			<path class="st3" d="M133,158.3c-0.7-0.5-1.6-0.3-2.1,0.4l-4.1,5.9c-0.5,0.7-0.3,1.6,0.4,2.1c0.3,0.2,0.6,0.3,0.9,0.3
				c0.5,0,0.9-0.2,1.2-0.6l4.1-5.9C133.9,159.7,133.7,158.8,133,158.3z"/>
			<path class="st3" d="M127.1,147.5c-0.3-0.8-1.2-1.1-2-0.8l-5.8,2.6c-0.8,0.3-1.1,1.2-0.8,2c0.2,0.6,0.8,0.9,1.4,0.9
				c0.2,0,0.4,0,0.6-0.1l5.8-2.6C127.1,149.1,127.4,148.2,127.1,147.5z"/>
			<path class="st3" d="M186,154.5l-5.8-2.6c-0.8-0.3-1.6,0-2,0.8c-0.3,0.8,0,1.6,0.8,2l5.8,2.6c0.2,0.1,0.4,0.1,0.6,0.1
				c0.6,0,1.1-0.3,1.4-0.9C187.1,155.7,186.8,154.8,186,154.5z"/>
			<path class="st3" d="M174.4,149.3l-5.8-2.6c-0.8-0.3-1.6,0-2,0.8c-0.3,0.8,0,1.6,0.8,2l5.8,2.6c0.2,0.1,0.4,0.1,0.6,0.1
				c0.6,0,1.1-0.3,1.4-0.9C175.5,150.5,175.1,149.6,174.4,149.3z"/>
		</g>
		<path class="st3" d="M162.7,144.1l-3.8-1.7c0.4-1.2,0.6-2.5,0.6-3.8c0-6.5-4.9-11.8-11.2-12.6v-43c6.3-0.7,11.2-6.1,11.2-12.6
			c0-7-5.7-12.7-12.7-12.7s-12.7,5.7-12.7,12.7c0,6.5,4.9,11.8,11.2,12.6v43c-6.3,0.7-11.2,6.1-11.2,12.6c0,1.3,0.2,2.6,0.6,3.8
			l-3.8,1.7c-0.8,0.3-1.1,1.2-0.8,2c0.2,0.6,0.8,0.9,1.4,0.9c0.2,0,0.4,0,0.6-0.1l3.8-1.7c0.7,1.1,1.5,2.1,2.4,2.9l-3.3,4.7
			c-0.5,0.7-0.3,1.6,0.4,2.1c0.3,0.2,0.6,0.3,0.9,0.3c0.5,0,0.9-0.2,1.2-0.6l3.3-4.7c1.4,0.7,2.9,1.2,4.5,1.4v6.6
			c0,0.8,0.7,1.5,1.5,1.5s1.5-0.7,1.5-1.5v-6.6c1.6-0.2,3.1-0.7,4.5-1.4l3.3,4.7c0.3,0.4,0.8,0.6,1.2,0.6c0.3,0,0.6-0.1,0.9-0.3
			c0.7-0.5,0.8-1.4,0.4-2.1l-3.3-4.7c1-0.9,1.8-1.9,2.5-3l3.8,1.7c0.2,0.1,0.4,0.1,0.6,0.1c0.6,0,1.1-0.3,1.4-0.9
			C163.8,145.3,163.5,144.4,162.7,144.1z"/>
	</g>
</g>
</svg>
