<?xml version="1.0" encoding="utf-8"?>
<!-- Generator: Adobe Illustrator 25.0.1, SVG Export Plug-In . SVG Version: 6.00 Build 0)  -->
<svg version="1.1" xmlns="http://www.w3.org/2000/svg" xmlns:xlink="http://www.w3.org/1999/xlink" x="0px" y="0px"
	 viewBox="0 0 300 300" style="enable-background:new 0 0 300 300;" xml:space="preserve">
<style type="text/css">
	.st0{display:none;}
	.st1{display:inline;fill:#0F0000;}
	.st2{fill:#0099CC;}
	.st3{fill:#FFFFFF;}
	.st4{fill:#FFFFFF;stroke:#0099CC;stroke-miterlimit:10;}
	.st5{fill:none;stroke:#0099CC;stroke-width:4;stroke-miterlimit:10;}
	.st6{fill:none;stroke:#0099CC;stroke-miterlimit:10;}
	.st7{fill:#1A1A1A;}
	.st8{fill:none;stroke:#FFFFFF;stroke-width:3;stroke-linecap:round;stroke-miterlimit:10;}
	.st9{fill:#FFFFFF;stroke:#000000;stroke-width:3;stroke-miterlimit:10;}
	.st10{fill:none;stroke:#1A1A1A;stroke-width:3;stroke-linecap:round;stroke-miterlimit:10;}
	.st11{fill:none;stroke:#000000;stroke-width:3;stroke-miterlimit:10;}
	.st12{fill:none;stroke:#000000;stroke-width:3;stroke-linecap:round;stroke-miterlimit:10;}
	
		.st13{fill:none;stroke:#000000;stroke-width:3;stroke-linecap:round;stroke-miterlimit:10;stroke-dasharray:5.4685,5.4685,5.4685,5.4685;}
	
		.st14{fill:none;stroke:#000000;stroke-width:3;stroke-linecap:round;stroke-miterlimit:10;stroke-dasharray:5.4685,5.4685,5.4685,5.4685,5.4685,5.4685;}
	
		.st15{fill:none;stroke:#000000;stroke-width:3;stroke-linecap:round;stroke-miterlimit:10;stroke-dasharray:7.0543,7.0543,7.0543,7.0543;}
	
		.st16{fill:none;stroke:#000000;stroke-width:3;stroke-linecap:round;stroke-miterlimit:10;stroke-dasharray:7.0543,7.0543,7.0543,7.0543,7.0543,7.0543;}
	
		.st17{fill:none;stroke:#000000;stroke-width:3;stroke-linecap:round;stroke-miterlimit:10;stroke-dasharray:7.1999,7.1999,7.1999,7.1999;}
	
		.st18{fill:none;stroke:#000000;stroke-width:3;stroke-linecap:round;stroke-miterlimit:10;stroke-dasharray:7.1999,7.1999,7.1999,7.1999,7.1999,7.1999;}
	
		.st19{fill:none;stroke:#000000;stroke-width:3;stroke-linecap:round;stroke-miterlimit:10;stroke-dasharray:6.2946,6.2946,6.2946,6.2946;}
	
		.st20{fill:none;stroke:#000000;stroke-width:3;stroke-linecap:round;stroke-miterlimit:10;stroke-dasharray:6.2946,6.2946,6.2946,6.2946,6.2946,6.2946;}
	
		.st21{fill:none;stroke:#000000;stroke-width:3;stroke-linecap:round;stroke-miterlimit:10;stroke-dasharray:6.4652,6.4652,6.4652,6.4652;}
	
		.st22{fill:none;stroke:#000000;stroke-width:3;stroke-linecap:round;stroke-miterlimit:10;stroke-dasharray:6.4652,6.4652,6.4652,6.4652,6.4652,6.4652;}
	
		.st23{fill:none;stroke:#000000;stroke-width:3;stroke-linecap:round;stroke-miterlimit:10;stroke-dasharray:6.9887,6.9887,6.9887,6.9887;}
	
		.st24{fill:none;stroke:#000000;stroke-width:3;stroke-linecap:round;stroke-miterlimit:10;stroke-dasharray:6.9887,6.9887,6.9887,6.9887,6.9887,6.9887;}
	
		.st25{fill:none;stroke:#000000;stroke-width:3;stroke-linecap:round;stroke-miterlimit:10;stroke-dasharray:6.9668,6.9668,6.9668,6.9668;}
	
		.st26{fill:none;stroke:#000000;stroke-width:3;stroke-linecap:round;stroke-miterlimit:10;stroke-dasharray:6.9668,6.9668,6.9668,6.9668,6.9668,6.9668;}
	
		.st27{fill:none;stroke:#000000;stroke-width:3;stroke-linecap:round;stroke-miterlimit:10;stroke-dasharray:7.0215,7.0215,7.0215,7.0215;}
	
		.st28{fill:none;stroke:#000000;stroke-width:3;stroke-linecap:round;stroke-miterlimit:10;stroke-dasharray:7.0215,7.0215,7.0215,7.0215,7.0215,7.0215;}
	
		.st29{fill:none;stroke:#000000;stroke-width:3;stroke-linecap:round;stroke-miterlimit:10;stroke-dasharray:8.6678,8.6678,8.6678,8.6678;}
	
		.st30{fill:none;stroke:#000000;stroke-width:3;stroke-linecap:round;stroke-miterlimit:10;stroke-dasharray:8.6678,8.6678,8.6678,8.6678,8.6678,8.6678;}
	
		.st31{fill:none;stroke:#000000;stroke-width:3;stroke-linecap:round;stroke-miterlimit:10;stroke-dasharray:9.1363,9.1363,9.1363,9.1363;}
	
		.st32{fill:none;stroke:#000000;stroke-width:3;stroke-linecap:round;stroke-miterlimit:10;stroke-dasharray:9.1363,9.1363,9.1363,9.1363,9.1363,9.1363;}
</style>
<g id="Ebene_2" class="st0">
	<rect x="-838.9" y="-50.7" class="st1" width="2417.2" height="423"/>
</g>
<g id="Ebene_1">
	<g>
		<path class="st3" d="M221.1,109.5c-0.4-0.7-1.3-0.9-2.1-0.5c-0.7,0.4-0.9,1.3-0.5,2.1c6.6,11.1,10.3,23.8,10.6,36.8h-11.8
			c-0.8,0-1.5,0.7-1.5,1.5s0.7,1.5,1.5,1.5h11.8c-0.6,40.8-33.5,73.9-74.3,74.7v-12.2c0-0.8-0.7-1.5-1.5-1.5s-1.5,0.7-1.5,1.5v12.2
			c-40.7-0.8-73.7-33.9-74.3-74.7h11.8c0.8,0,1.5-0.7,1.5-1.5s-0.7-1.5-1.5-1.5H77.6c1-40.4,33.8-73.1,74.3-73.9v11.4
			c0,0.8,0.7,1.5,1.5,1.5s1.5-0.7,1.5-1.5V74c14.5,0.3,28.4,4.6,40.4,12.6c0.7,0.5,1.6,0.3,2.1-0.4c0.5-0.7,0.3-1.6-0.4-2.1
			C184,75.5,169,71,153.4,71c-43.5,0-78.8,35.4-78.8,78.8s35.4,78.8,78.8,78.8s78.8-35.4,78.8-78.8
			C232.2,135.6,228.4,121.7,221.1,109.5z"/>
		<path class="st3" d="M121,121.1c-0.6-0.6-1.5-0.6-2.1,0s-0.6,1.5,0,2.1l33.7,33.7L229.5,80c0.6-0.6,0.6-1.5,0-2.1s-1.5-0.6-2.1,0
			l-74.8,74.8L121,121.1z"/>
	</g>
</g>
</svg>
