<?xml version="1.0" encoding="utf-8"?>
<!-- Generator: Adobe Illustrator 25.0.1, SVG Export Plug-In . SVG Version: 6.00 Build 0)  -->
<svg version="1.1" xmlns="http://www.w3.org/2000/svg" xmlns:xlink="http://www.w3.org/1999/xlink" x="0px" y="0px"
	 viewBox="0 0 300 300" style="enable-background:new 0 0 300 300;" xml:space="preserve">
<style type="text/css">
	.st0{display:none;}
	.st1{display:inline;fill:#0F0000;}
	.st2{fill:#FFFFFF;}
	.st3{fill:#0099CC;}
	.st4{fill:#FFFFFF;stroke:#0099CC;stroke-miterlimit:10;}
	.st5{fill:none;stroke:#0099CC;stroke-width:4;stroke-miterlimit:10;}
	.st6{fill:none;stroke:#0099CC;stroke-miterlimit:10;}
	.st7{fill:#FFFFFF;stroke:#000000;stroke-width:3;stroke-miterlimit:10;}
	.st8{fill:#1A1A1A;}
	.st9{fill:none;stroke:#1A1A1A;stroke-width:3;stroke-linecap:round;stroke-miterlimit:10;}
	.st10{fill:none;stroke:#FFFFFF;stroke-width:3;stroke-linecap:round;stroke-miterlimit:10;}
	.st11{fill:none;stroke:#000000;stroke-width:3;stroke-miterlimit:10;}
	.st12{fill:none;stroke:#000000;stroke-width:3;stroke-linecap:round;stroke-miterlimit:10;}
	
		.st13{fill:none;stroke:#000000;stroke-width:3;stroke-linecap:round;stroke-miterlimit:10;stroke-dasharray:5.4685,5.4685,5.4685,5.4685;}
	
		.st14{fill:none;stroke:#000000;stroke-width:3;stroke-linecap:round;stroke-miterlimit:10;stroke-dasharray:5.4685,5.4685,5.4685,5.4685,5.4685,5.4685;}
	
		.st15{fill:none;stroke:#000000;stroke-width:3;stroke-linecap:round;stroke-miterlimit:10;stroke-dasharray:7.0543,7.0543,7.0543,7.0543;}
	
		.st16{fill:none;stroke:#000000;stroke-width:3;stroke-linecap:round;stroke-miterlimit:10;stroke-dasharray:7.0543,7.0543,7.0543,7.0543,7.0543,7.0543;}
	
		.st17{fill:none;stroke:#000000;stroke-width:3;stroke-linecap:round;stroke-miterlimit:10;stroke-dasharray:7.1999,7.1999,7.1999,7.1999;}
	
		.st18{fill:none;stroke:#000000;stroke-width:3;stroke-linecap:round;stroke-miterlimit:10;stroke-dasharray:7.1999,7.1999,7.1999,7.1999,7.1999,7.1999;}
	
		.st19{fill:none;stroke:#000000;stroke-width:3;stroke-linecap:round;stroke-miterlimit:10;stroke-dasharray:6.2946,6.2946,6.2946,6.2946;}
	
		.st20{fill:none;stroke:#000000;stroke-width:3;stroke-linecap:round;stroke-miterlimit:10;stroke-dasharray:6.2946,6.2946,6.2946,6.2946,6.2946,6.2946;}
	
		.st21{fill:none;stroke:#000000;stroke-width:3;stroke-linecap:round;stroke-miterlimit:10;stroke-dasharray:6.4652,6.4652,6.4652,6.4652;}
	
		.st22{fill:none;stroke:#000000;stroke-width:3;stroke-linecap:round;stroke-miterlimit:10;stroke-dasharray:6.4652,6.4652,6.4652,6.4652,6.4652,6.4652;}
	.st23{fill:none;stroke:#1A1A1A;stroke-miterlimit:10;}
	.st24{fill:none;stroke:#000000;stroke-width:3;}
	
		.st25{fill:none;stroke:#000000;stroke-width:3;stroke-linecap:round;stroke-miterlimit:10;stroke-dasharray:8.0509,8.0509,8.0509,8.0509;}
	
		.st26{fill:none;stroke:#000000;stroke-width:3;stroke-linecap:round;stroke-miterlimit:10;stroke-dasharray:8.0509,8.0509,8.0509,8.0509,8.0509,8.0509;}
	
		.st27{fill:none;stroke:#000000;stroke-width:3;stroke-linecap:round;stroke-miterlimit:10;stroke-dasharray:8.0259,8.0259,8.0259,8.0259;}
	
		.st28{fill:none;stroke:#000000;stroke-width:3;stroke-linecap:round;stroke-miterlimit:10;stroke-dasharray:8.0259,8.0259,8.0259,8.0259,8.0259,8.0259;}
	
		.st29{fill:none;stroke:#000000;stroke-width:3;stroke-linecap:round;stroke-miterlimit:10;stroke-dasharray:8.0884,8.0884,8.0884,8.0884;}
	
		.st30{fill:none;stroke:#000000;stroke-width:3;stroke-linecap:round;stroke-miterlimit:10;stroke-dasharray:8.0884,8.0884,8.0884,8.0884,8.0884,8.0884;}
</style>
<g id="Ebene_2" class="st0">
	<rect x="-1960.6" y="-50.7" class="st1" width="2417.2" height="423"/>
</g>
<g id="Ebene_1">
	<g>
		<g>
			<path class="st2" d="M200.8,245.6H74.4V70.1h96.7l29.7,29.6V245.6z M77.4,242.6h120.4V101l-27.9-27.9H77.4V242.6z"/>
		</g>
	</g>
	<polygon points="210,236.2 86.6,236.2 86.6,63.7 181.2,63.7 210,92.5 	"/>
	<path class="st2" d="M218.1,85.1l-28.8-28.8H94.7v5.9h-9.6v175.5h126.4v-8.9h6.6V85.1z M208.5,234.7H88.1V65.2h6.6v163.6h113.8
		V234.7z"/>
	<path d="M169.4,110.9h-58.4c-0.8,0-1.5-0.7-1.5-1.5s0.7-1.5,1.5-1.5h58.4c0.8,0,1.5,0.7,1.5,1.5S170.2,110.9,169.4,110.9z"/>
	<path d="M169.4,146.3h-58.4c-0.8,0-1.5-0.7-1.5-1.5s0.7-1.5,1.5-1.5h58.4c0.8,0,1.5,0.7,1.5,1.5S170.2,146.3,169.4,146.3z"/>
	<path d="M178.8,164.1h-67.8c-0.8,0-1.5-0.7-1.5-1.5s0.7-1.5,1.5-1.5h67.8c0.8,0,1.5,0.7,1.5,1.5S179.6,164.1,178.8,164.1z"/>
	<path d="M188.5,128.6h-77.5c-0.8,0-1.5-0.7-1.5-1.5s0.7-1.5,1.5-1.5h77.5c0.8,0,1.5,0.7,1.5,1.5S189.3,128.6,188.5,128.6z"/>
	<g>
		<polygon points="214.9,86.1 187.8,86.1 187.8,59 		"/>
	</g>
</g>
</svg>
