<?xml version="1.0" encoding="utf-8"?>
<!-- Generator: Adobe Illustrator 25.0.1, SVG Export Plug-In . SVG Version: 6.00 Build 0)  -->
<svg version="1.1" xmlns="http://www.w3.org/2000/svg" xmlns:xlink="http://www.w3.org/1999/xlink" x="0px" y="0px"
	 viewBox="0 0 300 300" style="enable-background:new 0 0 300 300;" xml:space="preserve">
<style type="text/css">
	.st0{display:none;}
	.st1{display:inline;fill:#0F0000;}
	.st2{fill:#0099CC;}
	.st3{fill:#FFFFFF;}
	.st4{fill:#FFFFFF;stroke:#0099CC;stroke-miterlimit:10;}
	.st5{fill:none;stroke:#0099CC;stroke-width:4;stroke-miterlimit:10;}
	.st6{fill:none;stroke:#0099CC;stroke-miterlimit:10;}
	.st7{fill:#1A1A1A;}
	.st8{fill:none;stroke:#FFFFFF;stroke-width:3;stroke-linecap:round;stroke-miterlimit:10;}
	.st9{fill:#FFFFFF;stroke:#000000;stroke-width:3;stroke-miterlimit:10;}
	.st10{fill:none;stroke:#1A1A1A;stroke-width:3;stroke-linecap:round;stroke-miterlimit:10;}
	.st11{fill:none;stroke:#000000;stroke-width:3;stroke-miterlimit:10;}
	.st12{fill:none;stroke:#000000;stroke-width:3;stroke-linecap:round;stroke-miterlimit:10;}
	
		.st13{fill:none;stroke:#000000;stroke-width:3;stroke-linecap:round;stroke-miterlimit:10;stroke-dasharray:5.4685,5.4685,5.4685,5.4685;}
	
		.st14{fill:none;stroke:#000000;stroke-width:3;stroke-linecap:round;stroke-miterlimit:10;stroke-dasharray:5.4685,5.4685,5.4685,5.4685,5.4685,5.4685;}
	
		.st15{fill:none;stroke:#000000;stroke-width:3;stroke-linecap:round;stroke-miterlimit:10;stroke-dasharray:7.0543,7.0543,7.0543,7.0543;}
	
		.st16{fill:none;stroke:#000000;stroke-width:3;stroke-linecap:round;stroke-miterlimit:10;stroke-dasharray:7.0543,7.0543,7.0543,7.0543,7.0543,7.0543;}
	
		.st17{fill:none;stroke:#000000;stroke-width:3;stroke-linecap:round;stroke-miterlimit:10;stroke-dasharray:7.1999,7.1999,7.1999,7.1999;}
	
		.st18{fill:none;stroke:#000000;stroke-width:3;stroke-linecap:round;stroke-miterlimit:10;stroke-dasharray:7.1999,7.1999,7.1999,7.1999,7.1999,7.1999;}
	
		.st19{fill:none;stroke:#000000;stroke-width:3;stroke-linecap:round;stroke-miterlimit:10;stroke-dasharray:6.2946,6.2946,6.2946,6.2946;}
	
		.st20{fill:none;stroke:#000000;stroke-width:3;stroke-linecap:round;stroke-miterlimit:10;stroke-dasharray:6.2946,6.2946,6.2946,6.2946,6.2946,6.2946;}
	
		.st21{fill:none;stroke:#000000;stroke-width:3;stroke-linecap:round;stroke-miterlimit:10;stroke-dasharray:6.4652,6.4652,6.4652,6.4652;}
	
		.st22{fill:none;stroke:#000000;stroke-width:3;stroke-linecap:round;stroke-miterlimit:10;stroke-dasharray:6.4652,6.4652,6.4652,6.4652,6.4652,6.4652;}
	
		.st23{fill:none;stroke:#000000;stroke-width:3;stroke-linecap:round;stroke-miterlimit:10;stroke-dasharray:6.9887,6.9887,6.9887,6.9887;}
	
		.st24{fill:none;stroke:#000000;stroke-width:3;stroke-linecap:round;stroke-miterlimit:10;stroke-dasharray:6.9887,6.9887,6.9887,6.9887,6.9887,6.9887;}
	
		.st25{fill:none;stroke:#000000;stroke-width:3;stroke-linecap:round;stroke-miterlimit:10;stroke-dasharray:6.9668,6.9668,6.9668,6.9668;}
	
		.st26{fill:none;stroke:#000000;stroke-width:3;stroke-linecap:round;stroke-miterlimit:10;stroke-dasharray:6.9668,6.9668,6.9668,6.9668,6.9668,6.9668;}
	
		.st27{fill:none;stroke:#000000;stroke-width:3;stroke-linecap:round;stroke-miterlimit:10;stroke-dasharray:7.0215,7.0215,7.0215,7.0215;}
	
		.st28{fill:none;stroke:#000000;stroke-width:3;stroke-linecap:round;stroke-miterlimit:10;stroke-dasharray:7.0215,7.0215,7.0215,7.0215,7.0215,7.0215;}
	
		.st29{fill:none;stroke:#000000;stroke-width:3;stroke-linecap:round;stroke-miterlimit:10;stroke-dasharray:8.6678,8.6678,8.6678,8.6678;}
	
		.st30{fill:none;stroke:#000000;stroke-width:3;stroke-linecap:round;stroke-miterlimit:10;stroke-dasharray:8.6678,8.6678,8.6678,8.6678,8.6678,8.6678;}
	
		.st31{fill:none;stroke:#000000;stroke-width:3;stroke-linecap:round;stroke-miterlimit:10;stroke-dasharray:9.1363,9.1363,9.1363,9.1363;}
	
		.st32{fill:none;stroke:#000000;stroke-width:3;stroke-linecap:round;stroke-miterlimit:10;stroke-dasharray:9.1363,9.1363,9.1363,9.1363,9.1363,9.1363;}
</style>
<g id="Ebene_2" class="st0">
	<rect x="-1587" y="-50.7" class="st1" width="2417.2" height="423"/>
</g>
<g id="Ebene_1">
	<g>
		<path class="st3" d="M230.2,113.6v-8.9h6.4V89.2H131.7v15.6h6.4v8.9c0,10,4,19.6,10.8,27.2l25.6,28l-25.6,28
			c-6.8,7.6-10.8,17.2-10.8,27.2v8.9h-6.4v15.6h104.9v-15.6h-6.4v-8.9c0-10-4-19.6-10.8-27.2l-25.6-28l25.6-28
			C226.2,133.3,230.2,123.6,230.2,113.6z M134.7,92.2h98.9v9.6h-98.9V92.2z M233.6,236.1v9.6h-98.9v-9.6H233.6z"/>
		<path class="st3" d="M118.6,180.1c-35.5,0-64.4-28.9-64.4-64.4c0-35.5,28.9-64.4,64.4-64.4c19.7,0,38,8.8,50.3,24.2
			c0.5,0.6,0.4,1.6-0.2,2.1c-0.6,0.5-1.6,0.4-2.1-0.2c-11.7-14.6-29.2-23-48-23c-33.9,0-61.4,27.5-61.4,61.4
			c0,33.9,27.5,61.4,61.4,61.4c9.9,0,19.3-2.3,28.1-6.8c0.7-0.4,1.6-0.1,2,0.6c0.4,0.7,0.1,1.6-0.6,2
			C138.9,177.8,129,180.1,118.6,180.1z"/>
		<path class="st3" d="M85.8,145.1c-0.4,0-0.8-0.2-1.1-0.5c-0.5-0.6-0.5-1.6,0.2-2.1l31.9-27.1L96.9,74.9c-0.4-0.7-0.1-1.6,0.7-2
			c0.7-0.4,1.6-0.1,2,0.7l20.8,42.5l-33.7,28.7C86.4,145,86.1,145.1,85.8,145.1z"/>
	</g>
</g>
</svg>
