<?xml version="1.0" encoding="utf-8"?>
<!-- Generator: Adobe Illustrator 25.0.1, SVG Export Plug-In . SVG Version: 6.00 Build 0)  -->
<svg version="1.1" xmlns="http://www.w3.org/2000/svg" xmlns:xlink="http://www.w3.org/1999/xlink" x="0px" y="0px"
	 viewBox="0 0 300 300" style="enable-background:new 0 0 300 300;" xml:space="preserve">
<style type="text/css">
	.st0{display:none;}
	.st1{display:inline;fill:#0F0000;}
	.st2{fill:#FFFFFF;}
	.st3{fill:#0099CC;}
	.st4{fill:#FFFFFF;stroke:#0099CC;stroke-miterlimit:10;}
	.st5{fill:none;stroke:#0099CC;stroke-width:4;stroke-miterlimit:10;}
	.st6{fill:none;stroke:#0099CC;stroke-miterlimit:10;}
	.st7{fill:#FFFFFF;stroke:#000000;stroke-width:3;stroke-miterlimit:10;}
	.st8{fill:#1A1A1A;}
	.st9{fill:none;stroke:#1A1A1A;stroke-width:3;stroke-linecap:round;stroke-miterlimit:10;}
	.st10{fill:none;stroke:#FFFFFF;stroke-width:3;stroke-linecap:round;stroke-miterlimit:10;}
	.st11{fill:none;stroke:#000000;stroke-width:3;stroke-miterlimit:10;}
	.st12{fill:none;stroke:#000000;stroke-width:3;stroke-linecap:round;stroke-miterlimit:10;}
	
		.st13{fill:none;stroke:#000000;stroke-width:3;stroke-linecap:round;stroke-miterlimit:10;stroke-dasharray:5.4685,5.4685,5.4685,5.4685;}
	
		.st14{fill:none;stroke:#000000;stroke-width:3;stroke-linecap:round;stroke-miterlimit:10;stroke-dasharray:5.4685,5.4685,5.4685,5.4685,5.4685,5.4685;}
	
		.st15{fill:none;stroke:#000000;stroke-width:3;stroke-linecap:round;stroke-miterlimit:10;stroke-dasharray:7.0543,7.0543,7.0543,7.0543;}
	
		.st16{fill:none;stroke:#000000;stroke-width:3;stroke-linecap:round;stroke-miterlimit:10;stroke-dasharray:7.0543,7.0543,7.0543,7.0543,7.0543,7.0543;}
	
		.st17{fill:none;stroke:#000000;stroke-width:3;stroke-linecap:round;stroke-miterlimit:10;stroke-dasharray:7.1999,7.1999,7.1999,7.1999;}
	
		.st18{fill:none;stroke:#000000;stroke-width:3;stroke-linecap:round;stroke-miterlimit:10;stroke-dasharray:7.1999,7.1999,7.1999,7.1999,7.1999,7.1999;}
	
		.st19{fill:none;stroke:#000000;stroke-width:3;stroke-linecap:round;stroke-miterlimit:10;stroke-dasharray:6.2946,6.2946,6.2946,6.2946;}
	
		.st20{fill:none;stroke:#000000;stroke-width:3;stroke-linecap:round;stroke-miterlimit:10;stroke-dasharray:6.2946,6.2946,6.2946,6.2946,6.2946,6.2946;}
	
		.st21{fill:none;stroke:#000000;stroke-width:3;stroke-linecap:round;stroke-miterlimit:10;stroke-dasharray:6.4652,6.4652,6.4652,6.4652;}
	
		.st22{fill:none;stroke:#000000;stroke-width:3;stroke-linecap:round;stroke-miterlimit:10;stroke-dasharray:6.4652,6.4652,6.4652,6.4652,6.4652,6.4652;}
	.st23{fill:none;stroke:#1A1A1A;stroke-miterlimit:10;}
	.st24{fill:none;stroke:#000000;stroke-width:3;}
	
		.st25{fill:none;stroke:#000000;stroke-width:3;stroke-linecap:round;stroke-miterlimit:10;stroke-dasharray:8.0509,8.0509,8.0509,8.0509;}
	
		.st26{fill:none;stroke:#000000;stroke-width:3;stroke-linecap:round;stroke-miterlimit:10;stroke-dasharray:8.0509,8.0509,8.0509,8.0509,8.0509,8.0509;}
	
		.st27{fill:none;stroke:#000000;stroke-width:3;stroke-linecap:round;stroke-miterlimit:10;stroke-dasharray:8.0259,8.0259,8.0259,8.0259;}
	
		.st28{fill:none;stroke:#000000;stroke-width:3;stroke-linecap:round;stroke-miterlimit:10;stroke-dasharray:8.0259,8.0259,8.0259,8.0259,8.0259,8.0259;}
	
		.st29{fill:none;stroke:#000000;stroke-width:3;stroke-linecap:round;stroke-miterlimit:10;stroke-dasharray:8.0884,8.0884,8.0884,8.0884;}
	
		.st30{fill:none;stroke:#000000;stroke-width:3;stroke-linecap:round;stroke-miterlimit:10;stroke-dasharray:8.0884,8.0884,8.0884,8.0884,8.0884,8.0884;}
</style>
<g id="Ebene_2" class="st0">
	<rect x="-1207.9" y="-50.7" class="st1" width="2417.2" height="423"/>
</g>
<g id="Ebene_1">
	<g>
		<path class="st2" d="M141.1,215v-1.7c0-0.8-0.7-1.5-1.5-1.5s-1.5,0.7-1.5,1.5v1.7c-7.3,0.8-13,6.9-13,14.4c0,8,6.5,14.5,14.5,14.5
			c8,0,14.5-6.5,14.5-14.5C154.1,221.9,148.4,215.7,141.1,215z"/>
		<path class="st2" d="M196.2,191.7c-2.2,0-4.2,0.5-6.1,1.3l-2.6-6.3c-0.3-0.8-1.2-1.1-2-0.8c-0.8,0.3-1.1,1.2-0.8,2l2.7,6.7
			c-3.5,2.6-5.8,6.8-5.8,11.6c0,8,6.5,14.5,14.5,14.5s14.5-6.5,14.5-14.5S204.2,191.7,196.2,191.7z"/>
		<path class="st2" d="M89.6,193.6l2.7-6.4c0.3-0.8,0-1.6-0.8-2c-0.8-0.3-1.6,0-2,0.8l-2.7,6.4c-1.4-0.4-2.8-0.6-4.3-0.6
			c-8,0-14.5,6.5-14.5,14.5s6.5,14.5,14.5,14.5c8,0,14.5-6.5,14.5-14.5C97,200.8,94,196,89.6,193.6z"/>
		<path class="st2" d="M139.6,188.7c0.8,0,1.5-0.7,1.5-1.5v-8.7c0-0.8-0.7-1.5-1.5-1.5s-1.5,0.7-1.5,1.5v8.7
			C138.1,188,138.8,188.7,139.6,188.7z"/>
		<path class="st2" d="M138.1,204.6c0,0.8,0.7,1.5,1.5,1.5s1.5-0.7,1.5-1.5v-8.7c0-0.8-0.7-1.5-1.5-1.5s-1.5,0.7-1.5,1.5V204.6z"/>
		<path class="st2" d="M176.8,160.3C176.8,160.3,176.8,160.3,176.8,160.3c10.2-4.3,16.5-10.3,16.5-17l0-21.4c0-0.1,0-0.3,0-0.4h0
			l0-21.2c0-0.3,0-0.5,0-0.8h0l0-23c0-0.4,0.1-0.8,0.1-1.2c0-13.2-23.7-23.5-53.9-23.5S85.4,62.1,85.4,75.3v68
			c0,6.5,5.8,12.3,15.3,16.5l-1,2.3c-0.3,0.8,0,1.6,0.8,2c0.2,0.1,0.4,0.1,0.6,0.1c0.6,0,1.1-0.3,1.4-0.9l1-2.3
			c9.2,3.5,21.2,5.7,34.6,5.8v3.2c0,0.8,0.7,1.5,1.5,1.5s1.5-0.7,1.5-1.5v-3.2c12.6-0.2,24.1-2.1,33-5.3c0,0,0,0,0,0.1l1.5,3.7
			c0.2,0.6,0.8,0.9,1.4,0.9c0.2,0,0.4,0,0.6-0.1c0.8-0.3,1.1-1.2,0.8-2L176.8,160.3z M139.4,54.8c27.6,0,50.9,9.4,50.9,20.5
			c0,0,0,0,0,0h-0.1l0,1c-1.4,10.6-24.1,19.4-50.9,19.4c-27.6,0-50.9-9.4-50.9-20.5S111.8,54.8,139.4,54.8z M88.4,83.1
			c7.3,9.2,27.1,15.6,50.9,15.6c23.8,0,43.6-6.4,50.9-15.5l0,17c-0.9,10.8-23.9,19.8-50.9,19.8c-27.6,0-50.9-9.4-50.9-20.5V83.1z
			 M88.4,107.4c7.3,9.2,27.1,15.6,50.9,15.6c23.8,0,43.6-6.4,50.9-15.6l0,14.4c-0.5,10.9-23.6,20.1-50.9,20.1
			c-27.6,0-50.9-9.4-50.9-20.5V107.4z M139.4,163.7c-27.6,0-50.9-9.4-50.9-20.5v-13.9c7.3,9.2,27.1,15.6,50.9,15.6
			c23.9,0,43.6-6.4,50.9-15.6l0,13.9C190.3,154.3,167,163.7,139.4,163.7z"/>
		<path class="st2" d="M183.1,181.2c0.2,0,0.4,0,0.6-0.1c0.8-0.3,1.1-1.2,0.8-2l-3.1-7.6c-0.3-0.8-1.2-1.1-2-0.8
			c-0.8,0.3-1.1,1.2-0.8,2l3.1,7.6C182,180.9,182.5,181.2,183.1,181.2z"/>
		<path class="st2" d="M98.3,169.2c-0.8-0.3-1.6,0-2,0.8l-3.4,8c-0.3,0.8,0,1.6,0.8,2c0.2,0.1,0.4,0.1,0.6,0.1
			c0.6,0,1.1-0.3,1.4-0.9l3.4-8C99.4,170.4,99.1,169.5,98.3,169.2z"/>
	</g>
</g>
</svg>
