<?xml version="1.0" encoding="utf-8"?>
<!-- Generator: Adobe Illustrator 25.0.1, SVG Export Plug-In . SVG Version: 6.00 Build 0)  -->
<svg version="1.1" id="Ebene_1" xmlns="http://www.w3.org/2000/svg" xmlns:xlink="http://www.w3.org/1999/xlink" x="0px" y="0px"
	 viewBox="0 0 255.9 63.8" style="enable-background:new 0 0 255.9 63.8;" xml:space="preserve">
<style type="text/css">
	.st0{fill:#FFFFFF;}
</style>
<g>
	<path class="st0" d="M4.3,61.9c0,0.6-0.4,1-1.1,1H1c-0.6,0-1-0.4-1-1v-60c0-0.6,0.4-1.1,1-1.1h20.1c11.6,0,19.1,5.9,19.1,17.5v0.8
		c0,7.7-4.6,14.4-14.2,16.7l13.7,25.7c0.3,0.4,0.3,0.6,0.3,0.8c0,0.4-0.3,0.6-0.6,0.6h-3.4c-0.6,0-0.9-0.4-1.2-0.9L21.3,36.3h-17
		V61.9z M4.3,32.2h16.7c7.6,0,14.8-4.2,14.8-12.8V18c0-10-7.2-13-14.8-13H4.3V32.2z"/>
	<path class="st0" d="M89.9,57c-4,4.3-9.7,6.8-16,6.8c-12.3,0-22.1-9.1-22.1-23.5V23.6C51.7,9.1,61.4,0,73.8,0
		c12.3,0,22.1,9.1,22.1,23.6v16.7c0,5.2-1.2,9.7-3.5,13.4l6.7,5.7c0.5,0.4,0.5,0.9,0.5,0.9c0,0.3-0.1,0.4-0.3,0.7l-1.3,1.6
		c-0.3,0.3-0.4,0.4-0.8,0.4c-0.4,0-0.6-0.3-1.2-0.7L89.9,57z M86.6,54.1L74.1,43.5c-0.3-0.3-0.4-0.4-0.4-0.7c0-0.2,0.1-0.5,0.4-0.8
		l1.1-1.3c0.4-0.5,0.7-0.5,1-0.5s0.4,0.1,0.9,0.4l12,10.2c1.5-2.9,2.4-6.4,2.4-10.5V23.7c0-12.2-8-19.6-17.6-19.6
		c-9.7,0-17.6,7.4-17.6,19.6v16.7c0,12.1,8,19.4,17.7,19.4C78.8,59.7,83.4,57.8,86.6,54.1z"/>
	<path class="st0" d="M126.5,62.9c-0.4,0-0.7-0.1-1-0.7L103.1,2.4c-0.1-0.2-0.3-0.7-0.3-0.9c0-0.4,0.3-0.6,0.6-0.6h2.9
		c0.4,0,0.9,0.2,1.2,1.2l20.7,56.3l20.9-56.7c0.3-0.6,0.6-0.7,1-0.7h2.9c0.4,0,0.6,0.3,0.6,0.6c0,0.2-0.2,0.8-0.4,1.2l-22.3,59.4
		c-0.2,0.4-0.5,0.7-1.1,0.7H126.5z"/>
	<path class="st0" d="M197.9,16.7c-0.6,0-1-0.4-1-1c-0.2-6.3-3-11.7-15.1-11.7c-8.9,0-15.4,2.5-15.4,11.9c0,20.5,36.6,8.1,36.6,31
		c0,12.4-10.8,16.8-20.9,16.8c-17,0-22.2-12-22.2-19c0-0.6,0.4-1.1,1-1.1h2.5c0.6,0,1.1,0.4,1.1,1.1c0.1,4.8,3.4,14.9,17.8,14.9
		c8.9,0,16.5-3.5,16.5-12.8c0-18.1-36.6-6.3-36.6-31c0-11.8,9-15.9,19.8-15.9c16.6,0,19.4,10.2,19.4,15.8c0,0.6-0.4,1-1.1,1H197.9z"
		/>
	<path class="st0" d="M209.2,1.9c0-0.6,0.4-1.1,1-1.1h44.6c0.6,0,1.1,0.4,1.1,1.1v2c0,0.6-0.4,1-1.1,1h-20.1v57c0,0.6-0.4,1-1.1,1
		h-2.3c-0.6,0-1-0.4-1-1V5h-20.2c-0.6,0-1-0.4-1-1V1.9z"/>
</g>
</svg>
